<svg width="241" height="64" viewBox="0 0 241 64" fill="none" xmlns="http://www.w3.org/2000/svg">
<path d="M0 62.9266V1.06211H20.924C24.0107 1.06211 26.8896 1.36027 29.5608 1.9566C32.2913 2.55294 34.6656 3.5667 36.6838 4.9979C38.702 6.36946 40.3047 8.21809 41.4919 10.5438C42.6791 12.8695 43.2727 15.7617 43.2727 19.2204C43.2727 23.514 42.3229 27.0622 40.4235 29.865C38.5833 32.6081 36.0903 34.6654 32.9442 36.037L46.1219 62.9266H31.4306L20.3008 38.3627H13.0887V62.9266H0ZM13.0887 27.8971H19.8556C23.2984 27.8971 25.9102 27.1815 27.691 25.7503C29.5311 24.2594 30.4512 22.0828 30.4512 19.2204C30.4512 16.358 29.5311 14.3603 27.691 13.2273C25.9102 12.0943 23.2984 11.5277 19.8556 11.5277H13.0887V27.8971Z" fill="#1589EE"/>
<path d="M66.6318 64C63.4857 64 60.5475 63.4931 57.817 62.4794C55.0865 61.406 52.7121 59.8853 50.6939 57.9174C48.6757 55.8899 47.1027 53.4449 45.9748 50.5825C44.847 47.7201 44.2831 44.4403 44.2831 40.7431C44.2831 37.1651 44.8767 33.9449 46.0639 31.0825C47.2511 28.1604 48.7944 25.7155 50.6939 23.7476C52.6527 21.72 54.8787 20.1696 57.3718 19.0962C59.8648 18.0228 62.447 17.4861 65.1181 17.4861C68.2641 17.4861 70.9947 18.0228 73.3097 19.0962C75.684 20.1696 77.6429 21.6604 79.1862 23.5687C80.7889 25.4769 81.9761 27.743 82.7477 30.3669C83.5194 32.9311 83.9052 35.7339 83.9052 38.7752C83.9052 39.9678 83.8459 41.1008 83.7272 42.1742C83.6084 43.2476 83.4897 44.0527 83.371 44.5894H56.9266C57.5202 47.8096 58.8261 50.1949 60.8443 51.7454C62.9218 53.2362 65.4446 53.9816 68.4125 53.9816C71.5586 53.9816 74.7343 52.9977 77.9397 51.0298L82.3025 58.9908C80.0469 60.5413 77.5241 61.7638 74.7343 62.6583C72.0038 63.5527 69.3029 64 66.6318 64ZM56.8375 35.9128H72.7754C72.7754 33.4082 72.2115 31.3806 71.0837 29.8302C69.9559 28.2797 68.0564 27.5045 65.3852 27.5045C63.3077 27.5045 61.4675 28.1903 59.8649 29.5618C58.3215 30.9334 57.3124 33.0504 56.8375 35.9128Z" fill="#1589EE"/>
<path d="M105.808 64C103.078 64 100.585 63.4633 98.329 62.3899C96.1327 61.3165 94.2332 59.7959 92.6305 57.828C91.0872 55.8004 89.8703 53.3555 88.9799 50.4931C88.1489 47.6307 87.7334 44.3807 87.7334 40.7431C87.7334 37.1054 88.2379 33.8554 89.247 30.993C90.3155 28.1306 91.6808 25.7155 93.3428 23.7476C95.0642 21.72 97.0231 20.1696 99.2194 19.0962C101.475 18.0228 103.76 17.4861 106.075 17.4861C108.568 17.4861 110.616 17.9035 112.219 18.7384C113.822 19.5733 115.395 20.7063 116.938 22.1375L116.404 15.3393V0.222272H129.492V62.9266H118.808L117.917 58.5436H117.561C116.018 60.094 114.207 61.406 112.13 62.4794C110.052 63.4931 107.945 64 105.808 64ZM109.192 53.266C110.616 53.266 111.892 52.9679 113.02 52.3715C114.207 51.7752 115.335 50.7316 116.404 49.2408V31.0825C115.217 30.0091 114 29.2637 112.753 28.8462C111.507 28.4288 110.29 28.2201 109.103 28.2201C107.025 28.2201 105.185 29.2338 103.582 31.2614C101.98 33.2293 101.178 36.3302 101.178 40.5642C101.178 44.977 101.861 48.1972 103.226 50.2247C104.651 52.2523 106.639 53.266 109.192 53.266Z" fill="#1589EE"/>
<path d="M134.738 62.9266V0.222272H171.332V10.6586H147.826V24.1655H167.949V35.2573H147.826V62.9266H134.738Z" fill="#1589EE"/>
<path d="M180.362 62.9266V19.9175H193.451V62.9266H180.362ZM186.862 13.6858C184.666 13.6858 182.855 13.0597 181.431 11.8074C180.006 10.4954 179.294 8.82572 179.294 6.79819C179.294 4.77066 180.006 3.13075 181.431 1.87845C182.855 0.62615 184.666 0 186.862 0C189.118 0 190.928 0.62615 192.293 1.87845C193.718 3.13075 194.43 4.77066 194.43 6.79819C194.43 8.82572 193.718 10.4954 192.293 11.8074C190.928 13.0597 189.118 13.6858 186.862 13.6858Z" fill="#1589EE"/>
<path d="M197.527 62.9266L211.061 39.8485L198.329 18.5595H212.397L216.314 25.7155C216.908 26.9678 217.502 28.2499 218.095 29.5618C218.748 30.8141 219.401 32.0664 220.054 33.3187H220.41C220.885 32.0664 221.39 30.8141 221.924 29.5618C222.458 28.2499 222.963 26.9678 223.437 25.7155L226.465 18.5595H239.999L227.177 41.3692L240.8 62.9266H226.732L222.458 55.5917C221.746 54.3394 221.033 53.0573 220.321 51.7454C219.668 50.4334 218.986 49.1513 218.273 47.899H217.917C217.383 49.1513 216.819 50.4334 216.225 51.7454C215.632 52.9977 215.068 54.2798 214.534 55.5917L211.061 62.9266H197.527Z" fill="#1589EE"/>
<path d="M156.665 42.2576H174.072V62.5505H156.665V42.2576Z" fill="#1589EE"/>
<path d="M134.4 63.2V0H171.111V10.5188H147.53V24.1325H167.717V35.3119H147.53V63.2H134.4Z" fill="#00396B"/>
<path d="M180.17 63.2V19.8509H193.3V63.2H180.17Z" fill="#00396B"/>
<path d="M197.389 63.2L210.966 39.9395L198.193 18.4822H212.306L216.236 25.6947C216.832 26.9569 217.427 28.2492 218.023 29.5715C218.678 30.8337 219.333 32.0959 219.988 33.3581H220.345C220.822 32.0959 221.328 30.8337 221.864 29.5715C222.4 28.2492 222.906 26.9569 223.382 25.6947L226.419 18.4822H239.996L227.134 41.4722L240.8 63.2H226.687L222.4 55.8071C221.685 54.5449 220.97 53.2527 220.256 51.9304C219.601 50.6081 218.916 49.3158 218.201 48.0536H217.844C217.308 49.3158 216.743 50.6081 216.147 51.9304C215.552 53.1926 214.986 54.4848 214.45 55.8071L210.966 63.2H197.389Z" fill="#00396B"/>
<path d="M156.397 42.3676H173.86V62.8209H156.397V42.3676Z" fill="#00396B"/>
</svg>
