<svg width="151" height="40" viewBox="0 0 151 40" fill="none" xmlns="http://www.w3.org/2000/svg">
<path d="M0 39.3291V0.663817H13.0675C14.9952 0.663817 16.7932 0.850171 18.4614 1.22288C20.1666 1.59559 21.6495 2.22919 22.9099 3.12369C24.1703 3.98091 25.1712 5.13631 25.9126 6.58987C26.6541 8.04343 27.0248 9.85106 27.0248 12.0128C27.0248 14.6963 26.4316 16.9139 25.2454 18.6656C24.0962 20.3801 22.5392 21.6659 20.5744 22.5231L28.8042 39.3291H19.6291L12.6783 23.9767H8.17416V39.3291H0ZM8.17416 17.4357H12.4003C14.5504 17.4357 16.1815 16.9884 17.2936 16.0939C18.4428 15.1621 19.0174 13.8018 19.0174 12.0128C19.0174 10.2238 18.4428 8.9752 17.2936 8.26705C16.1815 7.55891 14.5504 7.20484 12.4003 7.20484H8.17416V17.4357Z" fill="#1589EE"/>
<path d="M41.613 40C39.6483 40 37.8133 39.6832 36.108 39.0496C34.4027 38.3787 32.9199 37.4283 31.6595 36.1984C30.3991 34.9312 29.4167 33.4031 28.7123 31.6141C28.008 29.8251 27.6558 27.7752 27.6558 25.4644C27.6558 23.2282 28.0265 21.2155 28.7679 19.4265C29.5093 17.6003 30.4732 16.0722 31.6595 14.8422C32.8828 13.575 34.273 12.606 35.83 11.9351C37.3869 11.2642 38.9995 10.9288 40.6677 10.9288C42.6325 10.9288 44.3378 11.2642 45.7835 11.9351C47.2664 12.606 48.4897 13.5378 49.4536 14.7304C50.4545 15.9231 51.1959 17.3394 51.6778 18.9793C52.1597 20.5819 52.4007 22.3337 52.4007 24.2345C52.4007 24.9799 52.3636 25.688 52.2895 26.3589C52.2153 27.0298 52.1412 27.5329 52.0671 27.8684H35.5519C35.9226 29.881 36.7382 31.3718 37.9986 32.3409C39.2961 33.2726 40.8716 33.7385 42.7252 33.7385C44.6899 33.7385 46.6732 33.1236 48.6751 31.8936L51.3998 36.8693C49.9911 37.8383 48.4156 38.6023 46.6732 39.1614C44.968 39.7205 43.2812 40 41.613 40ZM35.4963 22.4455H45.4499C45.4499 20.8801 45.0977 19.6129 44.3934 18.6439C43.689 17.6748 42.5027 17.1903 40.8345 17.1903C39.5371 17.1903 38.3879 17.6189 37.3869 18.4761C36.4231 19.3334 35.7929 20.6565 35.4963 22.4455Z" fill="#1589EE"/>
<path d="M66.0796 40C64.3743 40 62.8173 39.6646 61.4086 38.9937C60.037 38.3228 58.8507 37.3724 57.8498 36.1425C56.886 34.8753 56.126 33.3472 55.57 31.5582C55.051 29.7692 54.7915 27.7379 54.7915 25.4644C54.7915 23.1909 55.1066 21.1596 55.7368 19.3706C56.4041 17.5816 57.2567 16.0722 58.2947 14.8422C59.3697 13.575 60.5931 12.606 61.9647 11.9351C63.3734 11.2642 64.8006 10.9288 66.2464 10.9288C67.8034 10.9288 69.0823 11.1897 70.0833 11.7115C71.0842 12.2333 72.0666 12.9414 73.0304 13.8359L72.6968 9.58706V0.13892H80.8709V39.3291H74.1981L73.6421 36.5897H73.4197C72.4558 37.5588 71.3251 38.3787 70.0277 39.0496C68.7302 39.6832 67.4141 40 66.0796 40ZM68.1926 33.2913C69.0824 33.2913 69.8794 33.1049 70.5837 32.7322C71.3251 32.3595 72.0295 31.7073 72.6968 30.7755V19.4265C71.9553 18.7557 71.1954 18.2898 70.4169 18.0289C69.6384 17.768 68.8784 17.6375 68.137 17.6375C66.8395 17.6375 65.6903 18.2711 64.6894 19.5384C63.6885 20.7683 63.1881 22.7064 63.1881 25.3526C63.1881 28.1106 63.6144 30.1232 64.467 31.3905C65.3567 32.6577 66.5986 33.2913 68.1926 33.2913Z" fill="#1589EE"/>
<path d="M84.1466 39.3291V0.13892H107.001V6.6616H92.3208V15.1034H104.888V22.0358H92.3208V39.3291H84.1466Z" fill="#1589EE"/>
<path d="M112.64 39.3291V12.4484H120.814V39.3291H112.64ZM116.699 8.55364C115.328 8.55364 114.197 8.1623 113.307 7.37961C112.418 6.55966 111.973 5.51607 111.973 4.24887C111.973 2.98166 112.418 1.95672 113.307 1.17403C114.197 0.391344 115.328 0 116.699 0C118.108 0 119.239 0.391344 120.091 1.17403C120.981 1.95672 121.426 2.98166 121.426 4.24887C121.426 5.51607 120.981 6.55966 120.091 7.37961C119.239 8.1623 118.108 8.55364 116.699 8.55364Z" fill="#1589EE"/>
<path d="M123.36 39.3291L131.812 24.9053L123.861 11.5997H132.646L135.093 16.0722C135.464 16.8549 135.835 17.6562 136.205 18.4761C136.613 19.2588 137.021 20.0415 137.429 20.8242H137.651C137.948 20.0415 138.263 19.2588 138.596 18.4761C138.93 17.6562 139.245 16.8549 139.542 16.0722L141.432 11.5997H149.885L141.877 25.8557L150.385 39.3291H141.599L138.93 34.7448C138.485 33.9621 138.04 33.1608 137.595 32.3409C137.188 31.5209 136.761 30.7196 136.317 29.9369H136.094C135.76 30.7196 135.408 31.5209 135.038 32.3409C134.667 33.1235 134.315 33.9249 133.981 34.7448L131.812 39.3291H123.36Z" fill="#1589EE"/>
<path d="M97.8408 26.411H108.712V39.094H97.8408V26.411Z" fill="#1589EE"/>
</svg>
