<svg width="83" height="23" viewBox="0 0 83 23" fill="none" xmlns="http://www.w3.org/2000/svg">
<path d="M0 21.7064V0.366372H7.21219C8.27612 0.366372 9.26843 0.469223 10.1891 0.674927C11.1303 0.88063 11.9487 1.23033 12.6443 1.72402C13.34 2.19713 13.8924 2.83482 14.3016 3.63706C14.7108 4.4393 14.9154 5.43697 14.9154 6.63005C14.9154 8.11111 14.5881 9.33505 13.9333 10.3019C13.2991 11.2481 12.4397 11.9578 11.3554 12.4309L15.8975 21.7064H10.8336L6.99736 13.2331H4.51146V21.7064H0ZM4.51146 9.62304H6.84391C8.03059 9.62304 8.93084 9.37619 9.54464 8.8825C10.1789 8.36824 10.496 7.61742 10.496 6.63005C10.496 5.64267 10.1789 4.95356 9.54464 4.56273C8.93084 4.17189 8.03059 3.97647 6.84391 3.97647H4.51146V9.62304Z" fill="#1589EE"/>
<path d="M22.9669 22.0767C21.8825 22.0767 20.8698 21.9018 19.9286 21.5521C18.9874 21.1819 18.169 20.6573 17.4734 19.9785C16.7777 19.2791 16.2356 18.4357 15.8468 17.4483C15.4581 16.461 15.2637 15.3296 15.2637 14.0542C15.2637 12.82 15.4683 11.7092 15.8775 10.7218C16.2867 9.71389 16.8187 8.8705 17.4734 8.19168C18.1486 7.49229 18.9158 6.95746 19.7752 6.58719C20.6345 6.21693 21.5245 6.03179 22.4452 6.03179C23.5296 6.03179 24.4707 6.21693 25.2687 6.58719C26.0871 6.95746 26.7623 7.47172 27.2942 8.12997C27.8467 8.78822 28.2559 9.56989 28.5219 10.475C28.7878 11.3595 28.9208 12.3263 28.9208 13.3754C28.9208 13.7868 28.9004 14.1777 28.8594 14.5479C28.8185 14.9182 28.7776 15.1959 28.7367 15.381H19.6217C19.8263 16.4918 20.2764 17.3146 20.9721 17.8495C21.6882 18.3637 22.5577 18.6209 23.5807 18.6209C24.6651 18.6209 25.7597 18.2814 26.8646 17.6026L28.3684 20.3488C27.5909 20.8836 26.7214 21.3053 25.7597 21.6138C24.8186 21.9224 23.8876 22.0767 22.9669 22.0767ZM19.591 12.388H25.0846C25.0846 11.5241 24.8902 10.8247 24.5014 10.2899C24.1127 9.75503 23.458 9.48761 22.5373 9.48761C21.8212 9.48761 21.1869 9.72417 20.6345 10.1973C20.1025 10.6704 19.7547 11.4007 19.591 12.388Z" fill="#1589EE"/>
<path d="M36.4704 22.0767C35.5293 22.0767 34.6699 21.8915 33.8925 21.5213C33.1354 21.151 32.4807 20.6265 31.9283 19.9476C31.3963 19.2482 30.9769 18.4049 30.67 17.4175C30.3835 16.4301 30.2403 15.309 30.2403 14.0542C30.2403 12.7994 30.4142 11.6784 30.7621 10.691C31.1303 9.7036 31.6009 8.8705 32.1738 8.19168C32.7672 7.49229 33.4423 6.95746 34.1994 6.58719C34.9768 6.21693 35.7646 6.03179 36.5625 6.03179C37.4218 6.03179 38.1277 6.17578 38.6801 6.46377C39.2325 6.75175 39.7747 7.14259 40.3067 7.63628L40.1226 5.29126V0.0766722H44.634V21.7064H40.9512L40.6443 20.1945H40.5215C39.9896 20.7293 39.3655 21.1819 38.6494 21.5521C37.9333 21.9018 37.207 22.0767 36.4704 22.0767ZM37.6367 18.374C38.1277 18.374 38.5676 18.2712 38.9563 18.0655C39.3655 17.8597 39.7543 17.4998 40.1226 16.9855V10.7218C39.7134 10.3516 39.2939 10.0944 38.8643 9.95045C38.4346 9.80646 38.0152 9.73446 37.606 9.73446C36.8899 9.73446 36.2556 10.0842 35.7032 10.7835C35.1508 11.4624 34.8745 12.532 34.8745 13.9925C34.8745 15.5147 35.1098 16.6255 35.5804 17.3249C36.0715 18.0243 36.7569 18.374 37.6367 18.374Z" fill="#1589EE"/>
<path d="M46.4419 21.7064V0.0766722H59.0556V3.67665H50.9534V8.33583H57.8894V12.1619H50.9534V21.7064H46.4419Z" fill="#1589EE"/>
<path d="M62.168 21.7064V6.8705H66.6795V21.7064H62.168ZM64.4084 4.7209C63.6514 4.7209 63.0273 4.50491 62.5363 4.07293C62.0452 3.62038 61.7997 3.04441 61.7997 2.34502C61.7997 1.64563 62.0452 1.07995 62.5363 0.647967C63.0273 0.215989 63.6514 0 64.4084 0C65.1859 0 65.8099 0.215989 66.2805 0.647967C66.7715 1.07995 67.0171 1.64563 67.0171 2.34502C67.0171 3.04441 66.7715 3.62038 66.2805 4.07293C65.8099 4.50491 65.1859 4.7209 64.4084 4.7209Z" fill="#1589EE"/>
<path d="M68.0846 21.7064L72.7495 13.7457L68.3608 6.40206H73.2098L74.5602 8.8705C74.7648 9.30248 74.9694 9.74474 75.174 10.1973C75.3991 10.6293 75.6241 11.0612 75.8492 11.4932H75.9719C76.1356 11.0612 76.3095 10.6293 76.4937 10.1973C76.6778 9.74474 76.8517 9.30248 77.0154 8.8705L78.0589 6.40206H82.7238L78.3044 14.2702L83 21.7064H78.151L76.6778 19.1763C76.4323 18.7443 76.1868 18.302 75.9413 17.8495C75.7162 17.3969 75.4809 16.9547 75.2354 16.5227H75.1126C74.9285 16.9547 74.7341 17.3969 74.5295 17.8495C74.3249 18.2814 74.1305 18.7237 73.9464 19.1763L72.7495 21.7064H68.0846Z" fill="#1589EE"/>
<path d="M54 14.5767H60V21.5767H54V14.5767Z" fill="#1589EE"/>
<path d="M46.4419 21.7064V0.0766602H59.0556V3.67663H50.9534V8.33582H57.8893V12.1619H50.9534V21.7064H46.4419Z" fill="white"/>
<path d="M62.168 21.7064V6.87049H66.6794V21.7064H62.168Z" fill="white"/>
<path d="M68.0845 21.7064L72.7494 13.7457L68.3607 6.40205H73.2098L74.5602 8.87049C74.7648 9.30247 74.9694 9.74473 75.174 10.1973C75.399 10.6293 75.6241 11.0612 75.8491 11.4932H75.9719C76.1356 11.0612 76.3095 10.6293 76.4936 10.1973C76.6778 9.74473 76.8517 9.30247 77.0154 8.87049L78.0588 6.40205H82.7237L78.3044 14.2702L83 21.7064H78.1509L76.6778 19.1762C76.4323 18.7443 76.1867 18.302 75.9412 17.8495C75.7162 17.3969 75.4809 16.9546 75.2353 16.5227H75.1126C74.9284 16.9546 74.7341 17.3969 74.5295 17.8495C74.3249 18.2814 74.1305 18.7237 73.9464 19.1762L72.7494 21.7064H68.0845Z" fill="white"/>
<path d="M54 14.5766H60V21.5766H54V14.5766Z" fill="white"/>
</svg>
