<svg width="16" height="16" viewBox="0 0 16 16" fill="none" xmlns="http://www.w3.org/2000/svg">
<g clip-path="url(#clip0)">
<path fill-rule="evenodd" clip-rule="evenodd" d="M13.9216 8.57576C14.1559 8.81007 14.1559 9.18997 13.9216 9.42429L11.2757 12.0702C11.2757 12.0702 11.2756 12.0702 11.2756 12.0703C11.1735 12.1724 11.0522 12.2535 10.9188 12.3088C10.7853 12.3641 10.6422 12.3926 10.4977 12.3926C10.3532 12.3926 10.2101 12.3641 10.0766 12.3088C9.94305 12.2535 9.82176 12.1724 9.7196 12.0702L8.49767 10.8482L5.9216 13.4243C5.68729 13.6586 5.30739 13.6586 5.07307 13.4243C4.83876 13.19 4.83876 12.8101 5.07307 12.5758L7.7196 9.92923C7.71965 9.92918 7.7197 9.92914 7.71974 9.92909C7.82187 9.82694 7.94311 9.7459 8.07656 9.6906C8.21006 9.63527 8.35316 9.6068 8.49767 9.6068C8.64219 9.6068 8.78528 9.63527 8.91879 9.6906C9.05223 9.7459 9.17348 9.82694 9.2756 9.92909C9.27565 9.92914 9.27569 9.92918 9.27574 9.92923L10.4977 11.1512L13.0731 8.57576C13.3074 8.34145 13.6873 8.34145 13.9216 8.57576ZM8.42694 10.7775L8.42707 10.7776C8.42703 10.7776 8.42698 10.7775 8.42694 10.7775Z" fill="#ffffff"/>
<path fill-rule="evenodd" clip-rule="evenodd" d="M1.49734 1.10002C1.27642 1.10002 1.09734 1.27911 1.09734 1.50002V14.5C1.09734 14.7209 1.27642 14.9 1.49734 14.9H14.4973C14.7183 14.9 14.8973 14.7209 14.8973 14.5V1.50002C14.8973 1.27911 14.7183 1.10002 14.4973 1.10002H1.49734ZM-0.102661 1.50002C-0.102661 0.616369 0.613683 -0.0999756 1.49734 -0.0999756H14.4973C15.381 -0.0999756 16.0973 0.616369 16.0973 1.50002V14.5C16.0973 15.3837 15.381 16.1 14.4973 16.1H1.49734C0.613683 16.1 -0.102661 15.3837 -0.102661 14.5V1.50002Z" fill="#1589EE"/>
<path fill-rule="evenodd" clip-rule="evenodd" d="M5.49734 3.10002C4.17186 3.10002 3.09734 4.17454 3.09734 5.50002C3.09734 6.82551 4.17186 7.90002 5.49734 7.90002C6.82282 7.90002 7.89734 6.82551 7.89734 5.50002C7.89734 4.17454 6.82282 3.10002 5.49734 3.10002ZM1.89734 5.50002C1.89734 3.5118 3.50911 1.90002 5.49734 1.90002C7.48556 1.90002 9.09734 3.5118 9.09734 5.50002C9.09734 7.48825 7.48556 9.10003 5.49734 9.10003C3.50911 9.10003 1.89734 7.48825 1.89734 5.50002Z" fill="#ffffff"/>
<path fill-rule="evenodd" clip-rule="evenodd" d="M5.49734 1.90002C5.82871 1.90002 6.09734 2.16865 6.09734 2.50002V5.2515L8.04294 7.19709C8.27725 7.43141 8.27725 7.81131 8.04294 8.04562C7.80862 8.27994 7.42872 8.27994 7.19441 8.04562L5.07307 5.92429C4.96055 5.81177 4.89734 5.65915 4.89734 5.50002V2.50002C4.89734 2.16865 5.16597 1.90002 5.49734 1.90002Z" fill="#ffffff"/>
<path fill-rule="evenodd" clip-rule="evenodd" d="M10.3973 3.50002C10.3973 3.16865 10.666 2.90002 10.9973 2.90002H12.9973C13.3287 2.90002 13.5973 3.16865 13.5973 3.50002C13.5973 3.8314 13.3287 4.10002 12.9973 4.10002H10.9973C10.666 4.10002 10.3973 3.8314 10.3973 3.50002Z" fill="#1589EE"/>
<path fill-rule="evenodd" clip-rule="evenodd" d="M10.3973 5.50002C10.3973 5.16865 10.666 4.90002 10.9973 4.90002H12.9973C13.3287 4.90002 13.5973 5.16865 13.5973 5.50002C13.5973 5.8314 13.3287 6.10002 12.9973 6.10002H10.9973C10.666 6.10002 10.3973 5.8314 10.3973 5.50002Z" fill="#1589EE"/>
</g>
<defs>
<clipPath id="clip0">
<rect width="16" height="16" fill="white"/>
</clipPath>
</defs>
</svg>
