<svg width="16" height="16" viewBox="0 0 16 16" fill="none" xmlns="http://www.w3.org/2000/svg">
<g clip-path="url(#clip0)">
<path d="M6 10.5C4.93913 10.5 3.92172 10.0786 3.17157 9.32843C2.42143 8.57828 2 7.56087 2 6.5V4.5C2 4.23478 2.10536 3.98043 2.29289 3.79289C2.48043 3.60536 2.73478 3.5 3 3.5H9C9.26522 3.5 9.51957 3.60536 9.70711 3.79289C9.89464 3.98043 10 4.23478 10 4.5V6.5C10 7.56087 9.57857 8.57828 8.82843 9.32843C8.07828 10.0786 7.06087 10.5 6 10.5Z" stroke="#1589EE" stroke-width="1.3" stroke-linecap="round" stroke-linejoin="round"/>
<path d="M4 3.5V0.5" stroke="#1589EE" stroke-width="1.3" stroke-linecap="round" stroke-linejoin="round"/>
<path d="M8 3.5V0.5" stroke="#1589EE" stroke-width="1.3" stroke-linecap="round" stroke-linejoin="round"/>
<path d="M6 10.5V12.5C6 13.0304 6.21071 13.5391 6.58579 13.9142C6.96086 14.2893 7.46957 14.5 8 14.5C8.53043 14.5 9.03914 14.2893 9.41421 13.9142C9.78929 13.5391 10 13.0304 10 12.5C10 11.9696 10.2107 11.4609 10.5858 11.0858C10.9609 10.7107 11.4696 10.5 12 10.5C12.5304 10.5 13.0391 10.7107 13.4142 11.0858C13.7893 11.4609 14 11.9696 14 12.5V15.5" stroke="#1589EE" stroke-width="1.3" stroke-linecap="round" stroke-linejoin="round"/>
<path d="M5 5.5H7" stroke="#ffffff" stroke-width="1.3" stroke-linecap="round" stroke-linejoin="round"/>
</g>
<defs>
<clipPath id="clip0">
<rect width="16" height="16" fill="white"/>
</clipPath>
</defs>
</svg>
