<svg width="16" height="16" viewBox="0 0 16 16" fill="none" xmlns="http://www.w3.org/2000/svg">
<path d="M5.5 7.5C6.4665 7.5 7.25 6.7165 7.25 5.75C7.25 4.7835 6.4665 4 5.5 4C4.5335 4 3.75 4.7835 3.75 5.75C3.75 6.7165 4.5335 7.5 5.5 7.5Z" stroke="#ffffff" stroke-linecap="round" stroke-linejoin="round"/>
<path d="M2.5 11C2.5 10.2044 2.81607 9.44129 3.37868 8.87868C3.94129 8.31607 4.70435 8 5.5 8C6.29565 8 7.05871 8.31607 7.62132 8.87868C8.18393 9.44129 8.5 10.2044 8.5 11H2.5Z" stroke="#ffffff" stroke-linecap="round" stroke-linejoin="round"/>
<path d="M9.5 6H12.5" stroke="#ffffff" stroke-linecap="round" stroke-linejoin="round"/>
<path d="M9.5 8H13.5" stroke="#ffffff" stroke-linecap="round" stroke-linejoin="round"/>
<path d="M14.5 2H1.5C1.23478 2 0.98043 2.10536 0.792893 2.29289C0.605357 2.48043 0.5 2.73478 0.5 3V13C0.5 13.2652 0.605357 13.5196 0.792893 13.7071C0.98043 13.8946 1.23478 14 1.5 14H3.5C3.5 13.7348 3.60536 13.4804 3.79289 13.2929C3.98043 13.1054 4.23478 13 4.5 13C4.76522 13 5.01957 13.1054 5.20711 13.2929C5.39464 13.4804 5.5 13.7348 5.5 14H10.5C10.5 13.7348 10.6054 13.4804 10.7929 13.2929C10.9804 13.1054 11.2348 13 11.5 13C11.7652 13 12.0196 13.1054 12.2071 13.2929C12.3946 13.4804 12.5 13.7348 12.5 14H14.5C14.7652 14 15.0196 13.8946 15.2071 13.7071C15.3946 13.5196 15.5 13.2652 15.5 13V3C15.5 2.73478 15.3946 2.48043 15.2071 2.29289C15.0196 2.10536 14.7652 2 14.5 2Z" stroke="#1589EE" stroke-linecap="round" stroke-linejoin="round"/>
</svg>
