<svg width="16" height="16" viewBox="0 0 16 16" fill="none" xmlns="http://www.w3.org/2000/svg">
<g clip-path="url(#clip0)">
<path d="M14.1073 8.25666C14.7623 7.59926 15.1974 6.75497 15.3526 5.84006C15.5078 4.92515 15.3755 3.98462 14.974 3.14799L12.694 5.42799C12.5547 5.56733 12.3894 5.67786 12.2073 5.75328C12.0253 5.82871 11.8303 5.86754 11.6332 5.86757C11.4362 5.8676 11.2411 5.82883 11.0591 5.75346C10.8771 5.6781 10.7117 5.56762 10.5723 5.42833C10.433 5.28904 10.3225 5.12367 10.2471 4.94166C10.1716 4.75966 10.1328 4.56458 10.1328 4.36756C10.1327 4.17055 10.1715 3.97546 10.2469 3.79343C10.3222 3.6114 10.4327 3.44599 10.572 3.30666L12.852 1.02666C12.016 0.623458 11.0753 0.490208 10.1602 0.645365C9.24507 0.800522 8.40086 1.23641 7.74447 1.89265C7.08809 2.54889 6.65201 3.393 6.49665 4.30808C6.34129 5.22315 6.47433 6.16389 6.87735 6.99999L1.02601 12.8527C0.744706 13.134 0.58667 13.5155 0.58667 13.9133C0.58667 14.3112 0.744706 14.6927 1.02601 14.974C1.30732 15.2553 1.68885 15.4133 2.08668 15.4133C2.48451 15.4133 2.86604 15.2553 3.14735 14.974L9.00001 9.12266C9.83641 9.52395 10.7766 9.65615 11.6913 9.50106C12.6059 9.34598 13.45 8.91123 14.1073 8.25666V8.25666Z" stroke="#767676" stroke-width="1.2" stroke-linecap="round" stroke-linejoin="round"/>
<path d="M10.572 5.42798L13.734 8.59065" stroke="#767676" stroke-width="1.2" stroke-linecap="round" stroke-linejoin="round"/>
</g>
<defs>
<clipPath id="clip0">
<rect width="16" height="16" fill="white"/>
</clipPath>
</defs>
</svg>
