<svg width="16" height="16" viewBox="0 0 16 16" fill="none" xmlns="http://www.w3.org/2000/svg" opacity="1">
<path d="M2.25 8.59998C3.2165 8.59998 4 7.81647 4 6.84998C4 5.88348 3.2165 5.09998 2.25 5.09998C1.2835 5.09998 0.5 5.88348 0.5 6.84998C0.5 7.81647 1.2835 8.59998 2.25 8.59998Z" stroke="#767676" stroke-width="1.3" stroke-linecap="round" stroke-linejoin="round"/>
<path d="M5.00933 10.922C4.83254 10.5089 4.56522 10.1408 4.22711 9.84493C3.889 9.54901 3.48874 9.33282 3.05588 9.21232C2.62303 9.09182 2.16863 9.07008 1.72625 9.14872C1.28387 9.22736 0.864807 9.40437 0.5 9.66667" stroke="#767676" stroke-width="1.3" stroke-linecap="round" stroke-linejoin="round"/>
<path d="M13.75 8.59998C14.7165 8.59998 15.5 7.81647 15.5 6.84998C15.5 5.88348 14.7165 5.09998 13.75 5.09998C12.7835 5.09998 12 5.88348 12 6.84998C12 7.81647 12.7835 8.59998 13.75 8.59998Z" stroke="#767676" stroke-width="1.3" stroke-linecap="round" stroke-linejoin="round"/>
<path d="M10.9907 10.922C11.1675 10.5089 11.4348 10.1408 11.7729 9.84493C12.1111 9.54901 12.5113 9.33282 12.9442 9.21232C13.377 9.09182 13.8314 9.07008 14.2738 9.14872C14.7162 9.22736 15.1352 9.40437 15.5001 9.66667" stroke="#767676" stroke-width="1.3" stroke-linecap="round" stroke-linejoin="round"/>
<path d="M8 8.59998C9.24264 8.59998 10.25 7.59262 10.25 6.34998C10.25 5.10734 9.24264 4.09998 8 4.09998C6.75736 4.09998 5.75 5.10734 5.75 6.34998C5.75 7.59262 6.75736 8.59998 8 8.59998Z" stroke="#767676" stroke-width="1.3" stroke-linecap="round" stroke-linejoin="round"/>
<path d="M12 13.0999C11.8698 12.1314 11.3925 11.243 10.6569 10.5997C9.9213 9.95638 8.97725 9.60181 8 9.60181C7.02275 9.60181 6.0787 9.95638 5.34308 10.5997C4.60745 11.243 4.13023 12.1314 4 13.0999" stroke="#767676" stroke-width="1.3" stroke-linecap="round" stroke-linejoin="round"/>
</svg>
