<svg width="20" height="22" viewBox="0 0 20 22" fill="none" xmlns="http://www.w3.org/2000/svg">
<path d="M15 8.66667C15 7.34059 14.4732 6.06882 13.5355 5.13114C12.5979 4.19346 11.3261 3.66667 10 3.66667C8.67392 3.66667 7.40215 4.19346 6.46447 5.13114C5.52678 6.06882 5 7.34059 5 8.66667C5 14.5 2.5 16.1667 2.5 16.1667H17.5C17.5 16.1667 15 14.5 15 8.66667Z" stroke="#1589EE" stroke-width="1.8" stroke-linecap="round" stroke-linejoin="round"/>
<path d="M11.4417 19.5C11.2952 19.7526 11.0849 19.9622 10.8319 20.1079C10.5789 20.2537 10.292 20.3304 10 20.3304C9.70803 20.3304 9.42117 20.2537 9.16816 20.1079C8.91515 19.9622 8.70486 19.7526 8.55835 19.5" stroke="#1589EE" stroke-width="1.8" stroke-linecap="round" stroke-linejoin="round"/>
<circle cx="15" cy="5" r="3.75" fill="#FF9E2C" stroke="white" stroke-width="1.5"/>
</svg>
