<svg width="16" height="16" viewBox="0 0 16 16" fill="none" xmlns="http://www.w3.org/2000/svg">
<g clip-path="url(#clip0)">
<path d="M15.4873 8.29C15.5063 8.19352 15.5037 8.09403 15.4797 7.99867C15.4557 7.90331 15.4109 7.81444 15.3485 7.73843C15.2862 7.66241 15.2077 7.60114 15.1189 7.559C15.0301 7.51685 14.933 7.49489 14.8347 7.49467H6.94932C6.79587 7.4944 6.6472 7.44119 6.52842 7.34402C6.40964 7.24686 6.32802 7.1117 6.29732 6.96134L6.11199 6.034C6.0813 5.88365 5.99968 5.74848 5.88089 5.65132C5.76211 5.55416 5.61345 5.50095 5.45999 5.50067H1.16466C1.06638 5.50099 0.96939 5.52302 0.880627 5.56521C0.791865 5.60739 0.713527 5.66868 0.651222 5.74468C0.588917 5.82068 0.544185 5.90952 0.52023 6.00483C0.496275 6.10015 0.493689 6.19958 0.512657 6.296L2.24132 14.9627C2.27202 15.113 2.35364 15.2482 2.47242 15.3454C2.5912 15.4425 2.73987 15.4957 2.89332 15.496H13.5053C13.6588 15.4957 13.8074 15.4425 13.9262 15.3454C14.045 15.2482 14.1266 15.113 14.1573 14.9627C14.4313 13.5947 15.1627 9.91267 15.4873 8.29V8.29Z" stroke="#1589EE" stroke-width="1.2" stroke-linecap="round" stroke-linejoin="round"/>
<path d="M3 3.5L3.01333 1.16667C3.01333 0.989856 3.08357 0.820286 3.2086 0.695262C3.33362 0.570238 3.50319 0.5 3.68 0.5H12.322C12.4988 0.5 12.6684 0.570238 12.7934 0.695262C12.9184 0.820286 12.9887 0.989856 12.9887 1.16667L13.002 5.5" stroke="#1589EE" stroke-width="1.2" stroke-linecap="round" stroke-linejoin="round"/>
<path d="M5.00793 2.49469L10.4999 2.50002" stroke="#FFFFFF" stroke-width="1.2" stroke-linecap="round" stroke-linejoin="round"/>
<path d="M8 4.5H10.5" stroke="#FFFFFF" stroke-width="1.2" stroke-linecap="round" stroke-linejoin="round"/>
</g>
<defs>
<clipPath id="clip0">
<rect width="16" height="16" fill="white"/>
</clipPath>
</defs>
</svg>
