<svg width="16" height="16" viewBox="0 0 16 16" fill="none" xmlns="http://www.w3.org/2000/svg">
<path fill-rule="evenodd" clip-rule="evenodd" d="M14.4165 8.50004C14.4165 10.1109 13.1106 11.4167 11.4998 11.4167C9.88897 11.4167 8.58313 10.1109 8.58313 8.50004C8.58313 6.88921 9.88897 5.58337 11.4998 5.58337C13.1106 5.58337 14.4165 6.88921 14.4165 8.50004ZM10.8018 7.4482C10.7042 7.35057 10.5459 7.35057 10.4483 7.4482C10.3506 7.54583 10.3506 7.70413 10.4483 7.80176L11.1465 8.49998L10.4483 9.1982C10.3506 9.29583 10.3506 9.45413 10.4483 9.55176C10.5459 9.64939 10.7042 9.64939 10.8018 9.55176L11.5 8.85353L12.1983 9.55176C12.2959 9.64939 12.4542 9.64939 12.5518 9.55176C12.6494 9.45413 12.6494 9.29583 12.5518 9.1982L11.8536 8.49998L12.5518 7.80176C12.6494 7.70413 12.6494 7.54583 12.5518 7.4482C12.4542 7.35057 12.2959 7.35057 12.1983 7.4482L11.5 8.14643L10.8018 7.4482Z" fill="#767676"/>
<path fill-rule="evenodd" clip-rule="evenodd" d="M1.33326 1.25C1.04127 1.25 0.775817 1.41947 0.652924 1.68434C0.53003 1.94922 0.572036 2.26134 0.760584 2.48429L5.91659 8.58128V12.6667C5.91659 12.9507 6.0771 13.2104 6.33118 13.3375L8.99785 14.6708C9.23034 14.7871 9.50645 14.7746 9.72756 14.638C9.94867 14.5013 10.0833 14.2599 10.0833 14V11.7014C9.47068 11.4299 8.95058 10.9878 8.58326 10.4353V12.7865L7.41659 12.2031V8.30667C7.41659 8.12935 7.35377 7.95777 7.23927 7.82237L2.94974 2.75H13.0501L11.1311 5.01921C11.2523 5.00651 11.3754 5 11.5 5C11.988 5 12.4527 5.09988 12.8748 5.28032L15.2393 2.48429C15.4278 2.26134 15.4698 1.94922 15.3469 1.68434C15.224 1.41947 14.9586 1.25 14.6666 1.25H1.33326Z" fill="#767676"/>
</svg>
