<svg width="16" height="16" viewBox="0 0 16 16" fill="none" xmlns="http://www.w3.org/2000/svg">
<path fill-rule="evenodd" clip-rule="evenodd" d="M2.26927 6.52286C1.76924 6.31094 1.33166 5.98045 0.991795 5.56665C0.727158 6.32891 0.583374 7.14768 0.583374 8.00004C0.583374 12.0962 3.90393 15.4167 8.00004 15.4167C12.0962 15.4167 15.4167 12.0962 15.4167 8.00004C15.4167 3.90393 12.0962 0.583374 8.00004 0.583374C7.21539 0.583374 6.4592 0.705223 5.74935 0.931032C6.15377 1.28107 6.47311 1.72678 6.67218 2.23296C7.09903 2.13508 7.5435 2.08337 8.00004 2.08337C11.2677 2.08337 13.9167 4.73236 13.9167 8.00004C13.9167 11.2677 11.2677 13.9167 8.00004 13.9167C4.73236 13.9167 2.08337 11.2677 2.08337 8.00004C2.08337 7.49 2.14791 6.99503 2.26927 6.52286Z" fill="#767676"/>
<path d="M8 4V8L10.6667 9.33333" stroke="#767676" stroke-width="1.5" stroke-linecap="round" stroke-linejoin="round"/>
<path fill-rule="evenodd" clip-rule="evenodd" d="M3.56889 6.11898C5.04165 6.11898 6.23555 4.92507 6.23555 3.45231C6.23555 1.97955 5.04165 0.785645 3.56889 0.785645C2.09613 0.785645 0.902222 1.97955 0.902222 3.45231C0.902222 4.92507 2.09613 6.11898 3.56889 6.11898ZM3.84666 2.3412C3.84666 2.18779 3.7223 2.06342 3.56889 2.06342C3.41547 2.06342 3.29111 2.18779 3.29111 2.3412V3.45231C3.29111 3.60572 3.41547 3.73009 3.56889 3.73009C3.7223 3.73009 3.84666 3.60572 3.84666 3.45231V2.3412ZM3.56888 4.28564C3.41547 4.28564 3.29111 4.41001 3.29111 4.56342C3.29111 4.71683 3.41547 4.8412 3.56888 4.8412H3.57166C3.72508 4.8412 3.84944 4.71683 3.84944 4.56342C3.84944 4.41001 3.72508 4.28564 3.57166 4.28564H3.56888Z" fill="#767676"/>
</svg>
