<svg width="16" height="16" viewBox="0 0 16 16" fill="none" xmlns="http://www.w3.org/2000/svg" opacity="0.3">
<g clip-path="url(#clip0)">
<path d="M14 4.5H2C1.44772 4.5 1 4.94772 1 5.5V14.5C1 15.0523 1.44772 15.5 2 15.5H14C14.5523 15.5 15 15.0523 15 14.5V5.5C15 4.94772 14.5523 4.5 14 4.5Z" stroke="#ffffff" stroke-width="1.3" stroke-linecap="round" stroke-linejoin="round"/>
<path d="M14.8666 5L13.2666 1.094C13.1879 0.916874 13.0595 0.766429 12.8968 0.660973C12.7342 0.555516 12.5445 0.499592 12.3506 0.500004H3.64997C3.45603 0.499462 3.26612 0.555326 3.10337 0.66079C2.94061 0.766255 2.81204 0.91677 2.7333 1.094L1.1333 5" stroke="#ffffff" stroke-width="1.3" stroke-linecap="round" stroke-linejoin="round"/>
<path d="M8 4.5V0.5" stroke="#ffffff" stroke-width="1.3" stroke-linecap="round" stroke-linejoin="round"/>
<path d="M9.5 12.5H12.5" stroke="#ffffff" stroke-width="1.3" stroke-linecap="round" stroke-linejoin="round"/>
</g>
<defs>
<clipPath id="clip0">
<rect width="16" height="16" fill="white"/>
</clipPath>
</defs>
</svg>
